# xmcd
#
# Track frame offsets: 
#        150
#        10895
#        26922
#        45039
#        61899
#        76117
#        98196
#        113095
#        129946
#        151283
#        163818
#
# Disc length: 2373 seconds
#
# Revision: 0
# Processed by: cddbd v1.5.2PL0 Copyright (c) Steve Scherf et al.
# Submitted via: ExactAudioCopy v0.90b4
#
DISCID=7709430b
DTITLE=Southern Tenant Folk Union - Revivals, Rituals and Union Songs
DYEAR=2008
DGENRE=Bluegrass
TTITLE0=Never Got the Best Of Me
TTITLE1=Down To The Riverside
TTITLE2=Cocaine
TTITLE3=Back To Front
TTITLE4=Folk Tree
TTITLE5=Let It Roll
TTITLE6=Her Love's Gone Cold
TTITLE7=No More Hard Times (No More Trouble)
TTITLE8=Can You Light a Flame
TTITLE9=Changeling Child
TTITLE10=Mesopotamia
EXTD=
EXTT0=
EXTT1=
EXTT2=
EXTT3=
EXTT4=
EXTT5=
EXTT6=
EXTT7=
EXTT8=
EXTT9=
EXTT10=
PLAYORDER=
